<?xml version="1.0" encoding="UTF-8" standalone="no"?>
<!DOCTYPE svg PUBLIC "-//W3C//DTD SVG 1.1//EN"
 "http://www.w3.org/Graphics/SVG/1.1/DTD/svg11.dtd">
<!-- Generated by graphviz version 12.1.0 (20240811.2233)
 -->
<!-- Title: snakemake_dag Pages: 1 -->
<svg width="508pt" height="188pt"
 viewBox="0.00 0.00 507.88 188.00" xmlns="http://www.w3.org/2000/svg" xmlns:xlink="http://www.w3.org/1999/xlink">
<g id="graph0" class="graph" transform="scale(1 1) rotate(0) translate(4 184)">
<title>snakemake_dag</title>
<polygon fill="white" stroke="none" points="-4,4 -4,-184 503.88,-184 503.88,4 -4,4"/>
<!-- 0 -->
<g id="node1" class="node">
<title>0</title>
<path fill="none" stroke="#d85656" stroke-width="2" d="M271.25,-36C271.25,-36 241.25,-36 241.25,-36 235.25,-36 229.25,-30 229.25,-24 229.25,-24 229.25,-12 229.25,-12 229.25,-6 235.25,0 241.25,0 241.25,0 271.25,0 271.25,0 277.25,0 283.25,-6 283.25,-12 283.25,-12 283.25,-24 283.25,-24 283.25,-30 277.25,-36 271.25,-36"/>
<text text-anchor="middle" x="256.25" y="-14.12" font-family="sans" font-size="10.00">all</text>
</g>
<!-- 1 -->
<g id="node2" class="node">
<title>1</title>
<path fill="none" stroke="#d89556" stroke-width="2" stroke-dasharray="5,2" d="M92.5,-108C92.5,-108 12,-108 12,-108 6,-108 0,-102 0,-96 0,-96 0,-84 0,-84 0,-78 6,-72 12,-72 12,-72 92.5,-72 92.5,-72 98.5,-72 104.5,-78 104.5,-84 104.5,-84 104.5,-96 104.5,-96 104.5,-102 98.5,-108 92.5,-108"/>
<text text-anchor="middle" x="52.25" y="-86.12" font-family="sans" font-size="10.00">munge_anemometer</text>
</g>
<!-- 1&#45;&gt;0 -->
<g id="edge1" class="edge">
<title>1&#45;&gt;0</title>
<path fill="none" stroke="grey" stroke-width="2" d="M104.52,-71.06C139.33,-59.12 184.37,-43.67 216.31,-32.71"/>
<polygon fill="grey" stroke="grey" stroke-width="2" points="217.1,-36.14 225.42,-29.58 214.82,-29.51 217.1,-36.14"/>
</g>
<!-- 2 -->
<g id="node3" class="node">
<title>2</title>
<path fill="none" stroke="#d6d856" stroke-width="2" stroke-dasharray="5,2" d="M188,-108C188,-108 134.5,-108 134.5,-108 128.5,-108 122.5,-102 122.5,-96 122.5,-96 122.5,-84 122.5,-84 122.5,-78 128.5,-72 134.5,-72 134.5,-72 188,-72 188,-72 194,-72 200,-78 200,-84 200,-84 200,-96 200,-96 200,-102 194,-108 188,-108"/>
<text text-anchor="middle" x="161.25" y="-86.12" font-family="sans" font-size="10.00">munge_aranet</text>
</g>
<!-- 2&#45;&gt;0 -->
<g id="edge2" class="edge">
<title>2&#45;&gt;0</title>
<path fill="none" stroke="grey" stroke-width="2" d="M185.22,-71.34C196.28,-63.19 209.6,-53.37 221.71,-44.45"/>
<polygon fill="grey" stroke="grey" stroke-width="2" points="223.54,-47.45 229.52,-38.7 219.39,-41.81 223.54,-47.45"/>
</g>
<!-- 3 -->
<g id="node4" class="node">
<title>3</title>
<path fill="none" stroke="#56d89a" stroke-width="2" stroke-dasharray="5,2" d="M282.62,-108C282.62,-108 229.88,-108 229.88,-108 223.88,-108 217.88,-102 217.88,-96 217.88,-96 217.88,-84 217.88,-84 217.88,-78 223.88,-72 229.88,-72 229.88,-72 282.62,-72 282.62,-72 288.62,-72 294.62,-78 294.62,-84 294.62,-84 294.62,-96 294.62,-96 294.62,-102 288.62,-108 282.62,-108"/>
<text text-anchor="middle" x="256.25" y="-86.12" font-family="sans" font-size="10.00">munge_lascar</text>
</g>
<!-- 3&#45;&gt;0 -->
<g id="edge3" class="edge">
<title>3&#45;&gt;0</title>
<path fill="none" stroke="grey" stroke-width="2" d="M256.25,-71.34C256.25,-64.75 256.25,-57.08 256.25,-49.67"/>
<polygon fill="grey" stroke="grey" stroke-width="2" points="259.75,-49.93 256.25,-39.93 252.75,-49.93 259.75,-49.93"/>
</g>
<!-- 4 -->
<g id="node5" class="node">
<title>4</title>
<path fill="none" stroke="#97d856" stroke-width="2" stroke-dasharray="5,2" d="M382.25,-108C382.25,-108 324.25,-108 324.25,-108 318.25,-108 312.25,-102 312.25,-96 312.25,-96 312.25,-84 312.25,-84 312.25,-78 318.25,-72 324.25,-72 324.25,-72 382.25,-72 382.25,-72 388.25,-72 394.25,-78 394.25,-84 394.25,-84 394.25,-96 394.25,-96 394.25,-102 388.25,-108 382.25,-108"/>
<text text-anchor="middle" x="353.25" y="-86.12" font-family="sans" font-size="10.00">munge_hhb_nc</text>
</g>
<!-- 4&#45;&gt;0 -->
<g id="edge4" class="edge">
<title>4&#45;&gt;0</title>
<path fill="none" stroke="grey" stroke-width="2" d="M328.52,-71.15C317.23,-63.01 303.66,-53.22 291.35,-44.33"/>
<polygon fill="grey" stroke="grey" stroke-width="2" points="293.54,-41.6 283.39,-38.58 289.45,-47.27 293.54,-41.6"/>
</g>
<!-- 5 -->
<g id="node6" class="node">
<title>5</title>
<path fill="none" stroke="#59d856" stroke-width="2" stroke-dasharray="5,2" d="M378.5,-180C378.5,-180 328,-180 328,-180 322,-180 316,-174 316,-168 316,-168 316,-156 316,-156 316,-150 322,-144 328,-144 328,-144 378.5,-144 378.5,-144 384.5,-144 390.5,-150 390.5,-156 390.5,-156 390.5,-168 390.5,-168 390.5,-174 384.5,-180 378.5,-180"/>
<text text-anchor="middle" x="353.25" y="-158.12" font-family="sans" font-size="10.00">munge_hhb_r</text>
</g>
<!-- 5&#45;&gt;4 -->
<g id="edge6" class="edge">
<title>5&#45;&gt;4</title>
<path fill="none" stroke="grey" stroke-width="2" d="M353.25,-143.34C353.25,-136.75 353.25,-129.08 353.25,-121.67"/>
<polygon fill="grey" stroke="grey" stroke-width="2" points="356.75,-121.93 353.25,-111.93 349.75,-121.93 356.75,-121.93"/>
</g>
<!-- 6 -->
<g id="node7" class="node">
<title>6</title>
<path fill="none" stroke="#56d8d8" stroke-width="2" d="M487.88,-108C487.88,-108 424.62,-108 424.62,-108 418.62,-108 412.62,-102 412.62,-96 412.62,-96 412.62,-84 412.62,-84 412.62,-78 418.62,-72 424.62,-72 424.62,-72 487.88,-72 487.88,-72 493.88,-72 499.88,-78 499.88,-84 499.88,-84 499.88,-96 499.88,-96 499.88,-102 493.88,-108 487.88,-108"/>
<text text-anchor="middle" x="456.25" y="-86.12" font-family="sans" font-size="10.00">munge_upas_nc</text>
</g>
<!-- 6&#45;&gt;0 -->
<g id="edge5" class="edge">
<title>6&#45;&gt;0</title>
<path fill="none" stroke="grey" stroke-width="2" d="M411.86,-73.46C377.27,-61.36 329.66,-44.69 296.24,-33"/>
<polygon fill="grey" stroke="grey" stroke-width="2" points="297.63,-29.78 287.04,-29.78 295.32,-36.38 297.63,-29.78"/>
</g>
<!-- 7 -->
<g id="node8" class="node">
<title>7</title>
<path fill="none" stroke="#569ad8" stroke-width="2" stroke-dasharray="5,2" d="M484.12,-180C484.12,-180 428.38,-180 428.38,-180 422.38,-180 416.38,-174 416.38,-168 416.38,-168 416.38,-156 416.38,-156 416.38,-150 422.38,-144 428.38,-144 428.38,-144 484.12,-144 484.12,-144 490.12,-144 496.12,-150 496.12,-156 496.12,-156 496.12,-168 496.12,-168 496.12,-174 490.12,-180 484.12,-180"/>
<text text-anchor="middle" x="456.25" y="-158.12" font-family="sans" font-size="10.00">munge_upas_r</text>
</g>
<!-- 7&#45;&gt;6 -->
<g id="edge7" class="edge">
<title>7&#45;&gt;6</title>
<path fill="none" stroke="grey" stroke-width="2" d="M456.25,-143.34C456.25,-136.75 456.25,-129.08 456.25,-121.67"/>
<polygon fill="grey" stroke="grey" stroke-width="2" points="459.75,-121.93 456.25,-111.93 452.75,-121.93 459.75,-121.93"/>
</g>
</g>
</svg>
