<?xml version="1.0" encoding="UTF-8"?>
<svg id="Layer_1" xmlns="http://www.w3.org/2000/svg" version="1.1" viewBox="0 0 797 332">
  <!-- Generator: Adobe Illustrator 30.2.1, SVG Export Plug-In . SVG Version: 2.1.1 Build 1)  -->
  <defs>
    <style>
      .st0 {
        stroke: #afd856;
      }

      .st0, .st1, .st2, .st3, .st4, .st5, .st6, .st7, .st8, .st9, .st10, .st11, .st12, .st13, .st14, .st15, .st16, .st17, .st18, .st19 {
        stroke-miterlimit: 4;
        stroke-width: 2px;
      }

      .st0, .st1, .st2, .st4, .st5, .st6, .st7, .st8, .st9, .st10, .st11, .st12, .st13, .st14, .st15, .st16, .st17, .st18, .st19 {
        fill: none;
      }

      .st0, .st2, .st4, .st5, .st6, .st7, .st8, .st9, .st10, .st11, .st12, .st13, .st14, .st15, .st16, .st17, .st18, .st19 {
        stroke-dasharray: 5 2;
      }

      .st1, .st3 {
        stroke: gray;
      }

      .st2 {
        stroke: #5673d8;
      }

      .st3 {
        fill: gray;
      }

      .st4 {
        stroke: #8fd856;
      }

      .st20 {
        font-family: ArialMT, Arial;
        font-size: 10px;
        isolation: isolate;
      }

      .st5 {
        stroke: #70d856;
      }

      .st6 {
        stroke: #56d8c9;
      }

      .st7 {
        stroke: #d85656;
      }

      .st21 {
        fill: #fff;
      }

      .st8 {
        stroke: #c6d856;
      }

      .st9 {
        stroke: #d8ac56;
      }

      .st10 {
        stroke: #56a9d8;
      }

      .st11 {
        stroke: #56c9d8;
      }

      .st12 {
        stroke: #59d856;
      }

      .st13 {
        stroke: #56d892;
      }

      .st14 {
        stroke: #d87556;
      }

      .st15 {
        stroke: #d8cb56;
      }

      .st16 {
        stroke: #5692d8;
      }

      .st17 {
        stroke: #56d873;
      }

      .st18 {
        stroke: #56d8a9;
      }

      .st19 {
        stroke: #d88d56;
      }
    </style>
  </defs>
  <g id="graph0">
    <polygon class="st21" points="0 331.95 0 .05 797 .05 797 331.95 0 331.95"/>
    <g id="node1">
      <path class="st7" d="M416.12,291.96h-29.99c-6,0-12,6-12,12v12c0,6,6,12,12,12h29.99c6,0,12-6,12-12v-12c0-6-6-12-12-12"/>
      <text class="st20" transform="translate(396.12 313.83)"><tspan x="0" y="0">all</tspan></text>
    </g>
    <g id="node2">
      <path class="st0" d="M96.47,76.03H15.99c-6,0-12,6-12,12v12c0,6,6,12,12,12h80.47c6,0,12-6,12-12v-12c0-6-6-12-12-12"/>
      <text class="st20" transform="translate(10.11 97.9)"><tspan x="0" y="0">munge_anemometer</tspan></text>
    </g>
    <g id="node9">
      <path class="st6" d="M127.08,148.01H59.35c-5.99,0-11.99,6-11.99,12v12c0,6,6,12,12,12h67.72c6,0,12-6,12-12v-12c0-6-6-12-12-12"/>
      <text class="st20" transform="translate(54.05 169.88)"><tspan x="0" y="0">trim_anemometer</tspan></text>
    </g>
    <g id="edge18">
      <path class="st1" d="M65.57,112.68c3.69,7,8.04,15.22,12.18,23.05"/>
      <polygon class="st3" points="80.76 133.96 82.34 144.43 74.59 137.23 80.76 133.96"/>
    </g>
    <g id="node3">
      <path class="st4" d="M261.92,76.03h-53.48c-6,0-12,6-12,12v12c0,6,6,12,12,12h53.48c6,0,12-6,12-12v-12c0-6-6-12-12-12"/>
      <text class="st20" transform="translate(202.94 97.9)"><tspan x="0" y="0">munge_aranet</tspan></text>
    </g>
    <g id="node10">
      <path class="st11" d="M285.53,148.01h-40.73c-6,0-12,6-12,12v12c0,6,6,12,12,12h40.73c6,0,12-6,12-12v-12c0-6-6-12-12-12"/>
      <text class="st20" transform="translate(239.89 169.88)"><tspan x="0" y="0">trim_aranet</tspan></text>
    </g>
    <g id="edge19">
      <path class="st1" d="M242.74,112.68c2.93,6.83,6.36,14.84,9.64,22.5"/>
      <polygon class="st3" points="255.58 133.76 256.31 144.33 249.15 136.51 255.58 133.76"/>
    </g>
    <g id="node4">
      <path class="st17" d="M419.49,76.03h-52.72c-6,0-12,6-12,12v12c0,6,6,12,12,12h52.72c6,0,12-6,12-12v-12c0-6-6-12-12-12"/>
      <text class="st20" transform="translate(361.73 97.9)"><tspan x="0" y="0">munge_lascar</tspan></text>
    </g>
    <g id="node11">
      <path class="st16" d="M443.11,148.01h-39.99c-6,0-12,6-12,12v12c0,6,6,12,12,12h39.99c6,0,12-6,12-12v-12c0-6-6-12-12-12"/>
      <text class="st20" transform="translate(398.68 169.88)"><tspan x="0" y="0">trim_lascar</tspan></text>
    </g>
    <g id="edge20">
      <path class="st1" d="M400.69,112.68c2.93,6.83,6.36,14.84,9.64,22.5"/>
      <polygon class="st3" points="413.53 133.76 414.26 144.33 407.1 136.51 413.53 133.76"/>
    </g>
    <g id="node5">
      <path class="st5" d="M568.2,76.03h-42.25c-6,0-12,6-12,12v12c0,6,6,12,12,12h42.25c6,0,12-6,12-12v-12c0-6-6-12-12-12"/>
      <text class="st20" transform="translate(520.68 97.9)"><tspan x="0" y="0">munge_hhb</tspan></text>
    </g>
    <g id="node12">
      <path class="st10" d="M591.06,148.01h-29.99c-6,0-12,6-12,12v12c0,6,6,12,12,12h29.99c6,0,12-6,12-12v-12c0-6-6-12-12-12"/>
      <text class="st20" transform="translate(556.62 169.88)"><tspan x="0" y="0">trim_hhb</tspan></text>
    </g>
    <g id="edge21">
      <path class="st1" d="M554.4,112.68c2.83,6.83,6.14,14.84,9.32,22.5"/>
      <polygon class="st3" points="566.9 133.73 567.49 144.31 560.43 136.41 566.9 133.73"/>
    </g>
    <g id="node6">
      <path class="st12" d="M572.32,4.05h-50.48c-6,0-12,6-12,12v12c0,6,6,12,12,12h50.48c6,0,12-6,12-12v-12c0-6-6-12-12-12"/>
      <text class="st20" transform="translate(516.23 25.92)"><tspan x="0" y="0">munge_hhb_r</tspan></text>
    </g>
    <g id="edge16">
      <path class="st1" d="M547.08,40.7v21.66"/>
      <polygon class="st3" points="550.58 62.1 547.08 72.1 543.58 62.1 550.58 62.1"/>
    </g>
    <g id="node7">
      <path class="st13" d="M720.77,76.03h-47.49c-6,0-12,6-12,12v12c0,6,6,12,12,12h47.49c6,0,12-6,12-12v-12c0-6-6-12-12-12"/>
      <text class="st20" transform="translate(668.13 97.9)"><tspan x="0" y="0">munge_upas</tspan></text>
    </g>
    <g id="node13">
      <path class="st2" d="M743.39,148.01h-34.73c-6,0-12,6-12,12v12c0,6,6,12,12,12h34.73c6,0,12-6,12-12v-12c0-6-6-12-12-12"/>
      <text class="st20" transform="translate(704.08 169.88)"><tspan x="0" y="0">trim_upas</tspan></text>
    </g>
    <g id="edge22">
      <path class="st1" d="M704.35,112.68c2.83,6.83,6.14,14.84,9.32,22.5"/>
      <polygon class="st3" points="716.86 133.73 717.44 144.31 710.39 136.41 716.86 133.73"/>
    </g>
    <g id="node8">
      <path class="st18" d="M724.89,4.05h-55.72c-6,0-12,6-12,12v12c0,6,6,12,12,12h55.72c6,0,12-6,12-12v-12c0-6-6-12-12-12"/>
      <text class="st20" transform="translate(663.69 25.92)"><tspan x="0" y="0">munge_upas_r</tspan></text>
    </g>
    <g id="edge17">
      <path class="st1" d="M697.03,40.7v21.66"/>
      <polygon class="st3" points="700.53 62.1 697.03 72.1 693.53 62.1 700.53 62.1"/>
    </g>
    <g id="node14">
      <path class="st14" d="M164.7,219.98h-66.98c-6,0-12,6-12,12v12c0,6,6,12,12,12h66.98c6,0,12-6,12-12v-12c0-6-6-12-12-12"/>
      <text class="st20" transform="translate(92.31 241.86)"><tspan x="0" y="0">flag_anemometer</tspan></text>
    </g>
    <g id="edge23">
      <path class="st1" d="M102.81,184.65c3.8,7,8.26,15.22,12.52,23.05"/>
      <polygon class="st3" points="118.35 205.97 120.05 216.42 112.2 209.31 118.35 205.97"/>
    </g>
    <g id="node15">
      <path class="st19" d="M323.15,219.98h-39.99c-6,0-12,6-12,12v12c0,6,6,12,12,12h39.99c6,0,12-6,12-12v-12c0-6-6-12-12-12"/>
      <text class="st20" transform="translate(278.14 241.86)"><tspan x="0" y="0">flag_aranet</tspan></text>
    </g>
    <g id="edge24">
      <path class="st1" d="M274.75,184.65c3.8,7,8.26,15.22,12.52,23.05"/>
      <polygon class="st3" points="290.3 205.97 292 216.42 284.15 209.31 290.3 205.97"/>
    </g>
    <g id="node16">
      <path class="st15" d="M480.73,219.98h-39.25c-6,0-12,6-12,12v12c0,6,6,12,12,12h39.25c6,0,12-6,12-12v-12c0-6-6-12-12-12"/>
      <text class="st20" transform="translate(436.93 241.86)"><tspan x="0" y="0">flag_lascar</tspan></text>
    </g>
    <g id="edge25">
      <path class="st1" d="M432.7,184.65c3.8,7,8.26,15.22,12.52,23.05"/>
      <polygon class="st3" points="448.25 205.97 449.95 216.42 442.1 209.31 448.25 205.97"/>
    </g>
    <g id="node17">
      <path class="st9" d="M629.05,219.98h-29.99c-6,0-12,6-12,12v12c0,6,6,12,12,12h29.99c6,0,12-6,12-12v-12c0-6-6-12-12-12"/>
      <text class="st20" transform="translate(594.88 241.86)"><tspan x="0" y="0">flag_hhb</tspan></text>
    </g>
    <g id="edge26">
      <path class="st1" d="M585.66,184.65c3.8,7,8.26,15.22,12.52,23.05"/>
      <polygon class="st3" points="601.2 205.97 602.9 216.42 595.05 209.31 601.2 205.97"/>
    </g>
    <g id="node18">
      <path class="st8" d="M781.01,219.98h-33.99c-6,0-12,6-12,12v12c0,6,6,12,12,12h33.99c6,0,12-6,12-12v-12c0-6-6-12-12-12"/>
      <text class="st20" transform="translate(742.33 241.86)"><tspan x="0" y="0">flag_upas</tspan></text>
    </g>
    <g id="edge27">
      <path class="st1" d="M735.61,184.65c3.8,7,8.26,15.22,12.52,23.05"/>
      <polygon class="st3" points="751.15 205.97 752.85 216.42 745.01 209.31 751.15 205.97"/>
    </g>
    <g id="edge11">
      <path class="st1" d="M177.67,252.28c4.56,1.27,9.13,2.51,13.52,3.69,58.77,15.74,127.16,32.76,169.5,43.15"/>
      <polygon class="st3" points="361.4 295.69 370.27 301.47 359.73 302.49 361.4 295.69"/>
    </g>
    <g id="edge12">
      <path class="st1" d="M328.13,256.82c11.41,8.14,25.11,17.92,37.55,26.81"/>
      <polygon class="st3" points="367.63 280.73 373.73 289.39 363.57 286.42 367.63 280.73"/>
    </g>
    <g id="edge13">
      <path class="st1" d="M445.97,256.63c-6.42,7.49-14.05,16.38-21.17,24.7"/>
      <polygon class="st3" points="427.6 283.45 418.43 288.76 422.28 278.89 427.6 283.45"/>
    </g>
    <g id="edge14">
      <path class="st1" d="M586.42,250.85c-4.44,1.79-9,3.55-13.35,5.12-44.63,16.08-96.81,31.73-131.88,41.8"/>
      <polygon class="st3" points="442.57 301.02 431.99 300.39 440.65 294.28 442.57 301.02"/>
    </g>
    <g id="edge15">
      <path class="st1" d="M734.23,251.69c-4.38,1.59-8.88,3.08-13.21,4.28-98.35,27.25-217.83,42.48-279.19,49.04"/>
      <polygon class="st3" points="442.25 308.49 431.94 306.05 441.53 301.53 442.25 308.49"/>
    </g>
  </g>
</svg>